<?xml version="1.0" encoding="UTF-8"?>
<!-- Generator: Adobe Illustrator 16.0.3, SVG Export Plug-In . SVG Version: 6.00 Build 0)  -->
<!DOCTYPE svg PUBLIC "-//W3C//DTD SVG 1.1//EN" "http://www.w3.org/Graphics/SVG/1.1/DTD/svg11.dtd">
<svg version="1.1" id="Layer_1" xmlns="http://www.w3.org/2000/svg" xmlns:xlink="http://www.w3.org/1999/xlink" x="0px" y="0px" width="600px" height="600px" viewBox="0 0 600 600" enable-background="new 0 0 600 600" xml:space="preserve">
<g>
	<path d="M22.816,110.871c-0.135,0-0.271-0.008-0.406-0.025c-1.082-0.133-2.024-0.783-2.653-1.831l-5.71-9.518c-0.142-0.236-0.065-0.544,0.171-0.686c0.237-0.144,0.544-0.064,0.686,0.172l5.71,9.518c0.467,0.777,1.147,1.258,1.917,1.353c0.768,0.095,1.545-0.206,2.187-0.848l9.671-9.671c0.195-0.195,0.512-0.195,0.707,0c0.195,0.195,0.195,0.512,0,0.707l-9.671,9.671C24.671,110.469,23.757,110.871,22.816,110.871z"/>
	<path d="M50.369,123.657c-1.218,0-2.436-0.397-3.362-1.191l-16.465-14.114c-0.21-0.18-0.234-0.496-0.054-0.705c0.18-0.209,0.496-0.234,0.705-0.055l16.465,14.114c1.496,1.281,3.927,1.281,5.423,0l16.466-14.114c0.208-0.178,0.524-0.154,0.705,0.055c0.18,0.209,0.155,0.525-0.055,0.705l-16.466,14.114C52.804,123.26,51.586,123.657,50.369,123.657z"/>
	<path d="M77.922,110.871c-0.941,0-1.855-0.402-2.61-1.158l-9.672-9.671c-0.195-0.195-0.195-0.512,0-0.707c0.195-0.195,0.512-0.195,0.707,0l9.672,9.671c0.641,0.643,1.419,0.946,2.188,0.848c0.77-0.095,1.45-0.575,1.917-1.353l5.711-9.518c0.143-0.237,0.452-0.313,0.686-0.172c0.237,0.142,0.314,0.449,0.172,0.686l-5.711,9.518c-0.629,1.048-1.57,1.698-2.652,1.831C78.193,110.863,78.057,110.871,77.922,110.871z"/>
	<path d="M98.234,101.906c-0.521,0-1.086-0.146-1.666-0.435l-21.423-10.71c-0.247-0.124-0.347-0.424-0.224-0.671c0.125-0.247,0.423-0.347,0.671-0.224l21.423,10.711c0.786,0.395,1.496,0.438,1.994,0.115c0.498-0.319,0.756-0.979,0.727-1.859l-1.296-38.88c-0.071-2.144-0.91-5.449-1.87-7.368L90.773,40.99c-0.933-1.866-3.248-4.324-5.057-5.367l-9.32-5.377c-1.942-1.121-4.812-3.322-6.396-4.907l-6.218-6.218c-1.597-1.596-3.615-4.587-4.5-6.667l-2.184-5.138c-0.794-1.871-3.133-3.869-5.105-4.362l-7.239-1.81c-1.958-0.49-4.81,0.302-6.234,1.727l-0.593,0.593c-1.599,1.599-4.132,3.407-5.648,4.031c-1.355,0.558-3.388,2.543-4.438,4.335l-1.267,2.161c-0.54,0.92-0.611,1.56-0.45,1.766c0.095,0.122,0.4,0.188,0.978,0.016c1.825-0.547,4.719-0.324,6.451,0.496c1.78,0.843,3.475,2.56,3.861,3.908c0.396,1.385-0.553,3.729-2.159,5.334c-1.5,1.5-4.396,3.471-6.456,4.395L15.162,36.01c-1.891,0.847-4.271,3.127-5.197,4.979L4.168,52.584c-0.959,1.919-1.798,5.225-1.87,7.368l-1.296,38.88c-0.029,0.88,0.229,1.54,0.727,1.859c0.499,0.319,1.207,0.279,1.995-0.115l21.422-10.711c0.248-0.124,0.547-0.022,0.671,0.224c0.124,0.247,0.023,0.547-0.224,0.671L4.17,101.472c-1.116,0.559-2.176,0.578-2.981,0.063c-0.807-0.518-1.228-1.488-1.186-2.734l1.296-38.88c0.075-2.264,0.961-5.755,1.975-7.782L9.07,40.542c1.03-2.06,3.58-4.503,5.683-5.445l13.636-6.105c1.967-0.881,4.729-2.76,6.158-4.188c1.443-1.443,2.162-3.452,1.904-4.353c-0.305-1.068-1.829-2.569-3.327-3.279c-1.515-0.717-4.141-0.919-5.736-0.441c-1.248,0.374-1.821-0.063-2.051-0.356c-0.488-0.62-0.355-1.646,0.374-2.889l1.267-2.161c1.163-1.983,3.37-4.115,4.92-4.754c1.39-0.572,3.827-2.318,5.322-3.813l0.593-0.593c1.67-1.67,4.893-2.563,7.184-1.99l7.239,1.81c2.274,0.568,4.868,2.785,5.783,4.941l2.184,5.137c0.844,1.982,2.767,4.832,4.287,6.352l6.218,6.218c1.533,1.534,4.311,3.664,6.189,4.748l9.32,5.377c1.982,1.144,4.429,3.74,5.451,5.786l5.797,11.595c1.014,2.026,1.899,5.518,1.976,7.782l1.296,38.88c0.041,1.246-0.38,2.217-1.187,2.734C99.162,101.782,98.716,101.906,98.234,101.906z"/>
</g>
</svg>